<svg xmlns="http://www.w3.org/2000/svg" xmlns:xlink="http://www.w3.org/1999/xlink" viewBox="0 0 139.46 149.54"><defs><style>.a{isolation:isolate;}.b,.d{fill:#d5f7e5;}.c{fill:url(#a);}.al,.am,.ao,.ar,.as,.at,.d,.k,.m,.q,.r,.s{mix-blend-mode:soft-light;}.e{fill:url(#b);}.f{fill:url(#c);}.g{fill:url(#d);}.h{fill:url(#e);}.ae,.i,.p{fill:#192f35;}.ae,.ai,.i,.x{mix-blend-mode:multiply;}.j{fill:url(#f);}.k{fill:url(#g);}.l{fill:url(#h);}.m{fill:url(#i);}.n{fill:url(#j);}.o{fill:#314649;}.q{fill:url(#k);}.r,.w{fill:#fff;}.s{fill:url(#l);}.t{fill:url(#m);}.u{fill:url(#n);}.v{fill:url(#o);}.x{fill:url(#p);}.y{fill:url(#q);}.z{fill:url(#r);}.aa{fill:url(#s);}.ab{fill:url(#t);}.ac{fill:url(#u);}.ad{fill:url(#v);}.ae{opacity:0.86;}.af{fill:url(#w);}.ag{fill:url(#x);}.ah{fill:url(#y);}.ai{opacity:0.5;fill:url(#z);}.aj{fill:url(#aa);}.ak{fill:url(#ab);}.al{fill:url(#ac);}.am{fill:url(#ad);}.an{fill:url(#ae);}.ao{fill:url(#af);}.ap{fill:url(#ag);}.aq{fill:url(#ah);}.ar{fill:url(#ai);}.at{fill:#e1d197;}</style><linearGradient id="a" x1="-27.33" y1="66.26" x2="-27.33" y2="23.2" gradientTransform="translate(48.56 23.02) rotate(-4.21)" gradientUnits="userSpaceOnUse"><stop offset="0" stop-color="#192f35"/><stop offset="1" stop-color="#192f35"/></linearGradient><radialGradient id="b" cx="282.71" cy="47.86" r="19.74" gradientTransform="matrix(-0.98, 0.18, 0.18, 0.98, 284.9, -27.35)" gradientUnits="userSpaceOnUse"><stop offset="0" stop-color="#d5f7e5"/><stop offset="1" stop-color="#192f35"/></radialGradient><linearGradient id="c" x1="71.21" y1="118.49" x2="71.21" y2="39.8" gradientTransform="matrix(1, 0, 0, 1, 0, 0)" xlink:href="#a"/><linearGradient id="d" x1="71.2" y1="111.33" x2="71.2" y2="43.87" gradientUnits="userSpaceOnUse"><stop offset="0" stop-color="#fdfdff"/><stop offset="1" stop-color="#dbcaff"/></linearGradient><linearGradient id="e" x1="18.99" y1="104.69" x2="18.99" y2="98.05" gradientTransform="matrix(1, 0, 0, 1, 0, 0)" xlink:href="#a"/><linearGradient id="f" x1="51.26" y1="130.7" x2="51.26" y2="101.01" gradientTransform="matrix(1, 0, 0, 1, 0, 0)" xlink:href="#a"/><linearGradient id="g" x1="49.47" y1="88.37" x2="49.47" y2="39.8" gradientUnits="userSpaceOnUse"><stop offset="0" stop-color="#b9acf4"/><stop offset="1" stop-color="#e1d1f5"/></linearGradient><linearGradient id="h" x1="70.77" y1="111.97" x2="70.77" y2="109.67" gradientUnits="userSpaceOnUse"><stop offset="0" stop-color="#192f35"/><stop offset="1" stop-color="#d5f7e5"/></linearGradient><linearGradient id="i" x1="68.39" y1="117.23" x2="68.39" y2="111.33" xlink:href="#g"/><linearGradient id="j" x1="18.99" y1="98.05" x2="18.99" y2="96.99" xlink:href="#h"/><linearGradient id="k" x1="43.79" y1="54.8" x2="43.79" y2="51.68" xlink:href="#g"/><linearGradient id="l" x1="48.42" y1="79.15" x2="48.42" y2="43.88" xlink:href="#g"/><linearGradient id="m" x1="73.44" y1="90.37" x2="73.44" y2="82.73" gradientUnits="userSpaceOnUse"><stop offset="0" stop-color="#efeaff"/><stop offset="1" stop-color="#d1bbff"/></linearGradient><linearGradient id="n" x1="73.51" y1="82.73" x2="73.51" y2="60.63" gradientUnits="userSpaceOnUse"><stop offset="0" stop-color="#bbe5ef"/><stop offset="1" stop-color="#297182"/></linearGradient><linearGradient id="o" x1="73.47" y1="91.03" x2="73.47" y2="90.37" gradientTransform="matrix(1, 0, 0, 1, 0, 0)" xlink:href="#a"/><linearGradient id="p" x1="68.72" y1="83.82" x2="78.16" y2="83.82" gradientUnits="userSpaceOnUse"><stop offset="0" stop-color="#192f35"/><stop offset="1" stop-color="#fff"/></linearGradient><linearGradient id="q" x1="23.6" y1="58.73" x2="23.6" y2="54.8" gradientTransform="matrix(1, 0, 0, 1, 0, 0)" xlink:href="#a"/><linearGradient id="r" x1="23.3" y1="64.46" x2="23.3" y2="60.99" gradientTransform="matrix(1, 0, 0, 1, 0, 0)" xlink:href="#a"/><linearGradient id="s" x1="93.28" y1="71.95" x2="102.25" y2="71.95" gradientUnits="userSpaceOnUse"><stop offset="0" stop-color="#cf6074"/><stop offset="1" stop-color="#ffc7c7"/></linearGradient><linearGradient id="t" x1="75.73" y1="74.58" x2="75.73" y2="71.57" gradientTransform="matrix(1, 0, 0, 1, 0, 0)" xlink:href="#a"/><linearGradient id="u" x1="104.76" y1="148.59" x2="104.76" y2="51.59" gradientUnits="userSpaceOnUse"><stop offset="0.02" stop-color="#ffc2a9"/><stop offset="1" stop-color="#ffb3b3"/></linearGradient><linearGradient id="v" x1="100.73" y1="77.85" x2="100.73" y2="52.76" gradientTransform="matrix(1, 0, 0, 1, 0, 0)" xlink:href="#a"/><linearGradient id="w" x1="88.04" y1="69.14" x2="88.04" y2="51.55" gradientUnits="userSpaceOnUse"><stop offset="0.02" stop-color="#f4b9b8"/><stop offset="1" stop-color="#ffb3b3"/></linearGradient><linearGradient id="x" x1="84.58" y1="99.27" x2="84.58" y2="71.73" xlink:href="#w"/><linearGradient id="y" x1="124.94" y1="149.37" x2="124.94" y2="110.84" xlink:href="#h"/><linearGradient id="z" x1="123.56" y1="149.54" x2="123.56" y2="114.92" xlink:href="#p"/><linearGradient id="aa" x1="107.27" y1="109.56" x2="107.27" y2="71.19" gradientUnits="userSpaceOnUse"><stop offset="0.02" stop-color="#f7d1c9"/><stop offset="1" stop-color="#ff898e"/></linearGradient><linearGradient id="ab" x1="89.68" y1="88.45" x2="95.67" y2="88.45" xlink:href="#s"/><linearGradient id="ac" x1="78.41" y1="76.14" x2="84.57" y2="76.14" xlink:href="#g"/><linearGradient id="ad" x1="80.26" y1="76.09" x2="80.26" y2="72.33" xlink:href="#g"/><linearGradient id="ae" x1="83.3" y1="80.12" x2="83.3" y2="73.47" xlink:href="#s"/><linearGradient id="af" x1="121.16" y1="67.99" x2="121.16" y2="52.76" xlink:href="#g"/><linearGradient id="ag" x1="123.15" y1="60.79" x2="123.15" y2="57.17" xlink:href="#d"/><linearGradient id="ah" x1="90.84" y1="64.18" x2="90.84" y2="56.83" xlink:href="#s"/><linearGradient id="ai" x1="99.15" y1="67.8" x2="99.15" y2="58.98" xlink:href="#g"/></defs><g class="a"><path class="b" d="M125.5,106.19C118,123.73,52.9,81.05,50.27,58.55S95.58-1.82,125.65,10.7c17,7.05,17.56,31.11,5.87,50.7C121.64,78,129.52,96.78,125.5,106.19Z"/><path class="b" d="M53.39.17c-10.37,1.7-9.76,24.75-3.88,33s21.65-8.58,22.25-17.32S62.23-1.29,53.39.17Z"/><path class="c" d="M33.4,90.57S10.2,80.44,7,49.34c0,0,24.53,1.13,35,37.44Z"/><path class="d" d="M8.58,51.11,35.89,87.2,29.65,87S9.6,76,8.58,51.11Z"/><path class="e" d="M33.64,93.12s-5-22.86-30.4-22.87c0,0,1.48,22.5,27.44,23.55Z"/><path class="d" d="M3.24,70.25l30.4,22.87L29.76,93S7.76,92.24,3.24,70.25Z"/><path class="f" d="M120.86,110.83s0,7.66-7.28,7.66H26.46c-2.88-.29-4.9-3.83-4.9-6.23,0-.93.5-11.44,1.1-24,1-19.81,2.19-44.69,2.19-44.69s.46-3.42,5.92-3.8l42.36.45,40.45.42A6.49,6.49,0,0,1,119,44.88Z"/><path class="g" d="M25.37,109.67s61.47,3.46,90.7.39c0,0,2.72-33.36-1-64.41,0,0-45.88-3.2-85.88-1A517.15,517.15,0,0,0,25.37,109.67Z"/><polygon class="h" points="22.2 98.05 15.78 98.05 15.78 104.69 21.89 104.69 22.2 98.05"/><path class="i" d="M105.16,111.36l3.19,7.13h5.23s6.37.36,7.28-7.66V97.52l-4.13.53-.66,12Z"/><path class="j" d="M54.05,130.7a144.72,144.72,0,0,1-31.94-3.4c-7.41-1.71-11.4-3.2-12.75-4.81-3.73-.6-6.55-1.56-8.07-3A3.93,3.93,0,0,1,0,116.58c0-8.69,15.76-15.29,16.44-15.57l.29.71c-.16.07-16,6.68-16,14.86a3.14,3.14,0,0,0,1.05,2.34c1.34,1.29,3.81,2.16,7.08,2.74a1.16,1.16,0,0,1,0-.18c-.19-1.08.59-2.13,2.43-3.31a9.94,9.94,0,0,1,8.41-.87,12.53,12.53,0,0,1,6.74,5.33c5.71,0,11.88-.26,18-.48,12.79-.47,24.87-.91,31.93.37,2.65.49,3.78,1,3.78,1.79s-.62,1.41-5.33,2.34c-12.35,2.46-45.64,4.19-47.95-1.5A11.84,11.84,0,0,0,26,123.4a121.83,121.83,0,0,1-15.28-.71c1.76,1.2,5.58,2.48,11.56,3.86a153,153,0,0,0,62.37.39c15.26-3,17-5.43,17.09-6.32s-1.48-1.58-2-1.76l.24-.73c.11,0,2.65.9,2.55,2.54-.15,2.39-5.94,4.68-17.71,7A158.67,158.67,0,0,1,54.05,130.7Zm-27.17-7.31a15.41,15.41,0,0,1,.7,1.48c1.33,3.3,17.37,3.91,32.52,2.8,12.82-.94,19.08-2.56,19.28-3.36,0,0-.19-.49-3.15-1-7-1.27-19-.83-31.77-.37C38.5,123.13,32.48,123.35,26.88,123.39ZM9.8,121.8a106.3,106.3,0,0,0,15.72.84A11.64,11.64,0,0,0,19.46,118a9.25,9.25,0,0,0-7.75.79c-1.51,1-2.22,1.82-2.09,2.53A1.07,1.07,0,0,0,9.8,121.8Z"/><path class="k" d="M76.27,40.88l-2.49,2.24s-36.48-.29-45.24.75c0,0-3.8,26.56-3.8,43.15l-2.08,1.35v-.08c1-19.81,2.19-44.69,2.19-44.69s.46-3.42,5.92-3.8l42.36.45Z"/><path class="l" d="M25.37,109.67l-.85.86s58.66,3.25,92.51,0l-1-.45A891.24,891.24,0,0,1,25.37,109.67Z"/><path class="m" d="M46.5,111.33l7.92,5.9H90.29l-5.45-5.15S52.78,111.77,46.5,111.33Z"/><polygon class="n" points="15.78 98.05 20.53 96.99 22.2 96.99 22.2 98.05 15.78 98.05"/><path class="o" d="M31.34,51.68a128.92,128.92,0,0,0-1.71,18H56.72s-.12-13.31,0-18Z"/><polygon class="b" points="39.89 60.99 35.46 60.99 35.7 56.46 40.06 56.46 39.89 60.99"/><polygon class="b" points="45.56 60.99 41.13 60.99 41.28 56.46 45.65 56.46 45.56 60.99"/><polygon class="b" points="51.23 60.99 46.8 60.99 46.86 56.46 51.23 56.46 51.23 60.99"/><polygon class="p" points="39.65 67.21 35.13 67.21 35.37 62.68 39.83 62.68 39.65 67.21"/><polygon class="p" points="45.44 67.21 40.91 67.21 41.07 62.68 45.53 62.68 45.44 67.21"/><polygon class="p" points="51.23 67.21 46.7 67.21 46.77 62.68 51.23 62.68 51.23 67.21"/><polygon class="q" points="30.86 54.8 56.68 54.8 56.72 51.68 31.34 51.68 30.86 54.8"/><polygon class="r" points="31.48 54.34 31.77 52.19 33.88 52.19 33.66 54.34 31.48 54.34"/><path class="s" d="M26.56,79.15,70.28,43.94s-20.93-.36-41.08.69C29.2,44.63,27.44,68.17,26.56,79.15Z"/><polygon class="t" points="69.26 89 69.98 82.73 77.15 82.73 77.62 88.74 75.26 90.37 71.69 90.37 69.26 89"/><path class="u" d="M73.44,60.63c-10.92,0-10.47,11.78-6.61,16.18,2.74,3.12,1.62,4.32,1.89,4.93s1.26,1,1.26,1H76.9s1-.39,1.26-1-.89-1.84,1.89-4.93C84.1,72.32,84.57,60.63,73.44,60.63Z"/><polygon class="v" points="71.69 90.37 72.63 91.03 74.32 91.03 75.26 90.37 71.69 90.37"/><path class="w" d="M66.09,67.35h2.16a9.89,9.89,0,0,1,1.66-4.25L68,62.61A5.79,5.79,0,0,0,66.09,67.35Z"/><path class="r" d="M78.52,75l1.21.65a9.66,9.66,0,0,0,2.3-6.2H80.31A8.53,8.53,0,0,1,78.52,75Z"/><path class="x" d="M68.72,81.74s6.69.89,9.44,0a1.79,1.79,0,0,1-1,1l.25,3.16a17,17,0,0,0-7.54-2.07L70,82.73A3.78,3.78,0,0,1,68.72,81.74Z"/><polygon class="y" points="24.3 54.8 22.89 54.8 22.89 58.5 24.11 58.73 24.3 54.8"/><polygon class="z" points="24 60.99 22.89 61.3 22.61 64.08 23.82 64.47 24 60.99"/><polygon class="p" points="123.36 42.92 130.07 38.2 132.92 39.8 125.45 46.68 123.36 42.92"/><polygon class="p" points="29.6 34.68 36.4 31.46 38.16 34.75 31.2 36.47 29.6 34.68"/><polygon class="b" points="98.32 129.93 107.94 129.69 110.08 132.94 99.1 132.51 98.32 129.93"/><path class="aa" d="M95.46,63.61s-2.58,8.92-2.12,12.57a4.6,4.6,0,0,0,4.45,4.12l4.46-11.16Z"/><path class="ab" d="M76.31,71.57s-1.6,1.17-1.5,1.68,1.85,1.33,1.85,1.33Z"/><path class="ac" d="M131.16,119.26l-1.74,29.33s-23.86-32-31-37.67c-.63-.49-1.22-1-1.78-1.36a36.47,36.47,0,0,0-9.53-5.5c-1-.56-2.86-3.43-3.09-4.34s-.23-14.17-1-17.14-4.27-6-4.57-7.08,1-2.9,2.29-3.13,8,1.76,10,8.54a15.75,15.75,0,0,0-1.3,3.34,13.31,13.31,0,0,0,.23,4.8,13.77,13.77,0,0,0,4,.23c1.22-.3,3.5-7,3.35-12.18S91.89,62,91.89,62l-3.74-8.75s4.35-2.06,6.71-1.6c0,0,3.73,6,6,7.31,0,0,4.91.83,7.73,1.67a13.67,13.67,0,0,1,6.21,2.82s3.11.23,4.57,1.37,7.77,9.14,8.14,11.28v.13c.19,2.55-4.72,17.38-14.36,27.14,0,0,2.3,2.22,5.67,5.27h0C122.23,111.81,126.81,115.84,131.16,119.26Z"/><path class="ad" d="M120.83,67.77h0a3.61,3.61,0,0,1-1.3.4S105.35,70.43,95,72.33h0c-5.46,1-9.89,1.89-10.62,2.32a4.38,4.38,0,0,0-1.44,1.28,3.61,3.61,0,0,0-.7,1.91,9,9,0,0,1-5.55-3.27A2.85,2.85,0,0,1,76,71.84a9.75,9.75,0,0,1,3.74-4.31h0a9.11,9.11,0,0,1,2.15-1,3.13,3.13,0,0,0,.06.41c.09.5.36,1.26,1.08,1.26.54,0,7.28-2.48,15.14-5.66h0a233.09,233.09,0,0,0,21.53-9.75,6.17,6.17,0,0,1,5.72,5.49A8.94,8.94,0,0,1,120.83,67.77Z"/><path class="ae" d="M95,72.33h0c-5.46,1-9.89,1.89-10.62,2.32a4.38,4.38,0,0,0-1.44,1.28l-3.44.85c-1.75-3.67.28-9.26.28-9.26h0L82,66.92c.09.5.36,1.26,1.08,1.26.54,0,7.28-2.48,15.14-5.66C94.45,66.51,95,72.33,95,72.33Z"/><path class="af" d="M79.75,67.52s1,3.29,7,.49c0,0,8-7.06,9.62-14.13l-1.47-2.23s-4.4-.7-6.7,1.6a30.66,30.66,0,0,1-3.22,9.11c-.76,1.25-5.19,3.88-5.19,3.88Z"/><path class="ag" d="M78.41,75.5S82.73,81,83,82.58s.94,16.69.94,16.69-.29-6,5.76-10.21a18.81,18.81,0,0,1,0-4.22,20.88,20.88,0,0,1,1.07-3.94c.19-.89-2.49-8.26-9.15-9.17a6,6,0,0,0-2,1.21A5.53,5.53,0,0,0,78.41,75.5Z"/><path class="ah" d="M132.26,144.53a14.65,14.65,0,0,1-3.41,4.84l-7.4-11.14s-3.18,1.78-4.09,1.59c-2.37-.45-2.37-5.59-2.37-5.59a39,39,0,0,1,1-12.31.18.18,0,0,0,0,0c1.12-4.32,3.35-8.68,7.67-11,0,0,2.91-1,5,4l6,4.12S136.28,134.73,132.26,144.53Z"/><path class="ai" d="M132.26,144.51v0a15.14,15.14,0,0,1-3.15,5l-7.66-11.31s-3.18,1.78-4.09,1.59c-2.37-.45-2.37-5.59-2.37-5.59a39,39,0,0,1,1-12.31c-.11.76-1.7,10.79.48,14.14s6.1-18.74,12.23-21.14c0,0-6.22,10.24-5.68,17.33S132.26,144.51,132.26,144.51Z"/><path class="aj" d="M113.11,103.38s2.3,2.22,5.67,5.27h0s-8.07-2-14.93-1.17c-5,.59-6.71,1.57-7.26,2.07a36.47,36.47,0,0,0-9.53-5.5l7.73-4.79s7.46-16.54,8.53-25l-1.88-3.13,5.68.76a39.52,39.52,0,0,0,10.24,1s3.32,1.73,6.2,1.37l3.9,1.79v.13C127.66,78.79,122.75,93.62,113.11,103.38Z"/><path class="ak" d="M89.68,89.06a8.68,8.68,0,0,0,3.6,2,14.7,14.7,0,0,0,2.39-5.32s-.88,2.47-2,3A6.32,6.32,0,0,1,89.68,89.06Z"/><path class="al" d="M78.41,75.5S81.91,80,82.94,80c1.39,0,2.17-2.09,1.2-4.85a5,5,0,0,0-2.76-2.77S79.59,72.64,78.41,75.5Z"/><path class="am" d="M78.87,76.09a7.92,7.92,0,0,1,3.24-3.38l-.73-.38s-1.76.48-3,3.17Z"/><path class="an" d="M83.09,73.47a4.91,4.91,0,0,1,1.4,4.39c-.4,2.89-2.17,2-2.89,1.26a3.11,3.11,0,0,0,1.55,1c.8.11,1.83-.9,1.85-2.87S83.09,73.47,83.09,73.47Z"/><path class="ao" d="M120.83,67.77h0l-.52.21a10.68,10.68,0,0,1-3.57-8.34c0-5,3-6.89,3-6.89a6.17,6.17,0,0,1,5.72,5.49A8.94,8.94,0,0,1,120.83,67.77Z"/><path class="ap" d="M123.2,60.73h0l-.12,0a2.6,2.6,0,0,1-1.09-2,1.68,1.68,0,0,1,1-1.57,1.46,1.46,0,0,1,1.35,1.3A2.12,2.12,0,0,1,123.2,60.73Z"/><path class="ae" d="M122.75,60.09h0l-.08,0a1.27,1.27,0,0,1-.56-1.15,1.56,1.56,0,0,1,.48-1.15.92.92,0,0,1,.86.83A1.33,1.33,0,0,1,122.75,60.09Z"/><path class="aq" d="M92,62.23l-2.32-5.4.7,7.35S91.22,63.22,92,62.23Z"/><polygon class="ar" points="89 66.96 109.3 58.98 108.54 60.64 89 67.8 89 66.96"/><polygon class="r" points="109.95 60.45 110.82 58.21 114.92 56.15 113.91 59.35 109.95 60.45"/><path class="r" d="M123.57,62a5.57,5.57,0,0,1-1.34,2.49l.78.79a5.26,5.26,0,0,0,1.71-2.76Z"/><g class="as"><path class="w" d="M127.76,115.68a5.57,5.57,0,0,0-4.18-4.54l.08-.45a6.07,6.07,0,0,1,4.55,4.91Z"/><path class="w" d="M126.16,118a10.1,10.1,0,0,0-5.75-4.5l.11-.44a10.36,10.36,0,0,1,6,4.72Z"/><path class="w" d="M124.79,120.62a17.34,17.34,0,0,0-7.13-3.23l.08-.45a17.5,17.5,0,0,1,7.34,3.33Z"/><path class="w" d="M123.43,124.89a24.32,24.32,0,0,0-7.33-3.55l.12-.44a24.82,24.82,0,0,1,7.48,3.62Z"/><path class="w" d="M122.43,128.82c-4.82-2.3-7.27-2-7.29-2l-.07-.46c.1,0,2.6-.34,7.56,2Z"/><path class="w" d="M119.26,133a18.42,18.42,0,0,1-4.44-.5l.12-.44a19.42,19.42,0,0,0,6.92.31l.06.45A19.48,19.48,0,0,1,119.26,133Z"/><path class="w" d="M115.72,138.23h-.1l0-.46a11.15,11.15,0,0,0,5.69-1.91l.24.39A11.75,11.75,0,0,1,115.72,138.23Z"/><path class="w" d="M121.68,138.23h-.46c0-.16.24-16.43,7.27-23.47l.32.32C121.92,122,121.68,138.07,121.68,138.23Z"/></g><path class="at" d="M88.16,53.25a51.26,51.26,0,0,0,5.18,7.1c3,2.91,6.6.16,6.6.16l.66-1.18a51.07,51.07,0,0,1-5.74-7.68S90.76,50.89,88.16,53.25Z"/></g></svg>