<svg xmlns="http://www.w3.org/2000/svg" viewBox="0 0 1000 505.92"><defs><style>.a{fill:#fbe087;}.b{fill:#bd537a;}.c{font-size:298.65px;fill:#62003c;font-family:OpenSans-Bold, Open Sans;font-weight:700;}</style></defs><circle class="a" cx="246.2" cy="20.13" r="20.13"/><circle class="a" cx="54.91" cy="133.64" r="20.13"/><circle class="a" cx="20.13" cy="240.88" r="20.13"/><circle class="a" cx="40.25" cy="351.5" r="20.13"/><circle class="a" cx="111.75" cy="439.9" r="20.13"/><circle class="a" cx="217.54" cy="485.79" r="20.13"/><circle class="a" cx="332.86" cy="478.59" r="20.13"/><circle class="a" cx="431.53" cy="420.62" r="20.13"/><circle class="a" cx="450.53" cy="109.98" r="20.13"/><circle class="a" cx="135.58" cy="53.94" r="20.13"/><circle class="a" cx="360.2" cy="40.25" r="20.13"/><circle class="b" cx="250.57" cy="77.41" r="14.89"/><circle class="b" cx="117.25" cy="166.78" r="14.89"/><circle class="b" cx="88.67" cy="240.88" r="14.89"/><circle class="b" cx="106.3" cy="324.21" r="14.89"/><circle class="b" cx="159.43" cy="390.87" r="14.89"/><circle class="b" cx="233.1" cy="422.03" r="14.89"/><circle class="b" cx="316.43" cy="416.96" r="14.89"/><circle class="b" cx="390.7" cy="376.74" r="14.89"/><circle class="b" cx="175.94" cy="107.2" r="14.89"/><circle class="b" cx="337.58" cy="97.9" r="14.89"/><circle class="b" cx="404.42" cy="149.34" r="14.89"/><text class="c" transform="translate(477.06 390.87)">CFL</text></svg>